<svg xmlns="http://www.w3.org/2000/svg" viewBox="0 0 326.01 406"><defs><style>.cls-1{fill:#fff;}</style></defs><g id="Layer_2" data-name="Layer 2"><g id="Layer_1-2" data-name="Layer 1"><path class="cls-1" d="M263.32,40.6c-11.6-1.6-32.7-6.2-40.9-9.1-19.1-6.6-31.5-12.7-47.4-23.3-6.8-4.5-12.6-8.2-13-8.2a71.11,71.11,0,0,0-6.6,5.7c-21.2,19.6-56.1,32.9-95.6,36.4-12.8,1.1-42,.7-53.5-.7l-5.2-.6L.42,58.6c-1.1,25.1.1,108.4,2,135.9,3.5,52.1,7.4,70.4,20.4,95.2,11.5,21.7,25,37.8,44.7,53.1,5.7,4.3,24.6,16.2,31.9,19.9,3.3,1.7,7.8,4.1,10,5.3s8.1,4.5,13,7.3c13.1,7.2,21.9,13.5,31.5,22.6,4.7,4.4,8.8,8,9.3,8.1s5.7-4.4,11.7-9.8c10.8-9.7,21-16.4,45-29.7,23.8-13.3,31.1-18,44.5-29,16.3-13.4,26.8-26.9,38.5-49.8,13-25.2,16.6-43.1,20.6-101.7,1.5-22.3,3.3-141.3,2.1-144.3-.4-1.2-1.5-1.2-5.9-.4C311.22,42.9,277,42.5,263.32,40.6ZM47.52,288.9c-6.2-3.9-6.5-4.2-11-14.3C29,257.7,26.72,249,24,225.5c-2.4-19.8-4.9-71.8-4.2-84.2.1-1.3,28.1-26.6,28.8-25.9.2.2-.1,5.7-.6,12.2-1.5,16.4-1.4,23.7.5,36.7,3.2,22.3,11.9,42.9,23.9,56.7,11.1,12.9,22.2,20.2,38.5,25.6,7.4,2.4,10.1,2.8,21,2.8,11.2.1,13.4-.2,21.4-2.8C185,236.2,202,204.8,194,171.5c-2.6-10.5-5.7-18.6-13.2-34.2-11.9-24.7-17.9-37.5-17.9-38,0-.3,1.1.2,2.5,1.1,2.4,1.6,2.6,1.6,9-4.9,3.6-3.5,6.5-6.9,6.5-7.5s-4.4-1-12-1c-6.6,0-12-.2-12-.4,0-.6,2.4-5.8,4.8-10.4,1.3-2.5,2.9-4.2,4-4.2.9,0,10.4,2.4,21,5.3,22.3,6,19.2,3.5,28.2,23.7,2.9,6.3,6.3,14,7.7,17,5.1,10.8,10.4,24.6,12.3,32,3.1,11.5,4.3,27.9,3.1,41.7-2.9,32.6-16.3,61.2-38.1,81.6-19.2,17.9-40.7,27.8-70.2,32.2C101.62,309.8,70.82,303.6,47.52,288.9ZM191.42,361c-4.4,2.7-12.4,8-17.8,11.9s-10.1,7.1-10.5,7.1a6.86,6.86,0,0,1-2.8-1.8,66.31,66.31,0,0,0-6.9-5.2c-2.7-1.8-5.2-3.7-5.5-4-.9-1.1-23.2-14.4-31-18.5-13.6-7-34.1-19.7-41.4-25.6-9.2-7.4-21.7-20.3-19.1-19.6,1.1.3,4.7,1.5,8,2.7a165.18,165.18,0,0,0,22.5,6.4c34,5.8,71.1-1.1,100-18.7,23.3-14.2,43.4-39.3,53-66.2,3.7-10.5,7-25.7,7.7-35.3.3-5,1-9.2,1.5-9.2s.8.6.8,1.2a83.52,83.52,0,0,0,2.4,9.3c8.3,27.3,9.6,51.7,4.1,74-3.4,13.9-6.6,22-14.4,35.9C230.82,325.4,207.22,351.3,191.42,361Zm103-101.8c-3,9.7-14.1,32-19.7,39.5-10.6,14.4-22.1,25.5-35.4,34.2-6.1,4-8.2,3.9-4.4-.1,4.2-4.4,18-26,21.6-33.6a172.26,172.26,0,0,0,11.1-33.4c1.4-6.3,1.8-12.6,1.7-25.9V222.3l5.5,3.6c4.9,3.1,6.4,3.6,12.1,3.6,4.3,0,7.7-.6,9.9-1.8,1.9-.9,3.6-1.5,3.8-1.3C301.42,227.2,296.82,251.6,294.42,259.2Zm12.2-150c-.3,26-1.3,59.2-2.3,73.8-1.8,29.7-1.9,29.8-9.8,34.5-7.5,4.4-12.2,3.1-20.2-5.8-5.7-6.2-11.2-16.2-14.4-26.2-1.2-3.9-5.8-15.9-10.1-26.9s-7.9-20.3-7.9-20.8c0-.9-2.9-7.8-9.5-22.3-1.5-3.3-4.5-10.1-6.7-15-9.3-20.6-11.9-25.6-14.1-26.5-4.5-1.9-51.7-14.3-52.3-13.7-.3.3-2.9,5-5.7,10.4l-5.2,9.8-8.5.7c-10.2.8-22.7,3.3-24.7,5a21.17,21.17,0,0,0-3.4,4.7c-1,2-3.8,6.5-6,10.1s-4.9,7.8-5.8,9.5-2.5,4.3-3.5,5.8-1.6,3-1.3,3.3,4.1-.2,8.4-1.1,14.3-2,22.4-2.2c14-.5,15-.4,23,2.2,7,2.3,9.2,3.6,12.9,7.4a40.9,40.9,0,0,1,6.2,8.2c6.9,14.1,8.8,18.3,11.6,25.4,8.1,20.5,8.3,37.5.6,52.8-3.6,6.9-15.4,18.6-22.4,22-12.8,6.1-32.1,7.4-45,2.9a80.79,80.79,0,0,1-39.5-30.7c-16.9-26-20.6-62-11.1-106.8,1.2-5.9,2-10.9,1.8-11.2s-4.1,2.8-8.6,6.8-9.6,8.5-11.5,10.2-7.8,6.9-13,11.7-10.2,8.8-10.9,8.8c-1,0-1.2-6.4-1-31.8l.3-31.7,22-.6c23.5-.7,32.6-1.7,50-5.4,23.4-4.9,46.2-14.4,63.5-26.4,4.7-3.2,8.7-5.8,9-5.6s4.8,2.7,10.1,5.9c34.1,20.1,78.2,31.6,121.2,31.6h12Zm-150.1.5c-.2.3-2.9-.3-5.8-1.3-4.3-1.5-8.3-1.9-20.5-1.9-8.4,0-15.3-.4-15.3-.8s1.5-3.3,3.2-6.3c2.7-4.5,3.9-5.5,6.8-6,1.9-.3,5.1-1,7-1.4a71.5,71.5,0,0,1,9.7-.9l6.3-.1,4.6,9.1C155,105.1,156.82,109.4,156.52,109.7Z"/></g></g></svg>