<svg xmlns="http://www.w3.org/2000/svg" viewBox="0 0 324.17 395.8"><defs><style>.cls-1{fill:#fff;}</style></defs><g id="Layer_2" data-name="Layer 2"><g id="Layer_1-2" data-name="Layer 1"><path class="cls-1" d="M7.2,205.1c6,29.4,19.3,63.7,34.1,87.4,3.9,6.1,16.5,24.1,17.9,25.3.3.3,2.5,3,5,6,6.5,8.1,25.3,26.5,35,34.4,4.7,3.8,14.4,10.7,21.5,15.5,13.2,8.7,38.5,22.1,41.8,22.1,2.3,0,22.5-10,32.2-16,19.5-11.8,33.7-23.2,51.1-40.5,24.3-24.2,43-51.9,55-81.5,1.9-4.7,3.9-9.4,4.3-10.5,2.3-5.3,8.9-26.9,10.9-35.5,3.3-14.3,5.8-32.4,7.2-51,1.1-16.5,1.4-119.9.2-121.7-.4-.6-8.8-2.9-18.7-5.2s-22.7-5.2-28.5-6.6-18.4-4.3-28-6.6-24.2-5.6-32.5-7.5C189,6.9,180.8,5,173.2,3.3c-4.1-.9-8.8-2.1-10.4-2.6-3.5-1.1.3-1.8-28.1,5.2-13.2,3.3-36.1,8.9-51,12.5s-34.2,8.2-43,10.4-20,4.8-25,6S5.2,37.4,3.4,38L0,39l.5,63.2C1,170.9,1.3,175.9,7.2,205.1ZM99.5,34.3c1.2-.3,14.8-3.7,30.2-7.5s29.1-6.8,30.5-6.6,13.5,2.9,27,6.1,26.4,6.1,28.8,6.6a33.92,33.92,0,0,1,5,1.3c.4.2,6.1,1.6,12.7,3.1,12,2.6,16.8,3.7,40.5,9.4,6.9,1.6,15.9,3.7,20,4.6s8.1,1.9,8.8,2.1c2.1.6,1.1,114.1-1.1,127.9-2.8,17.2-5.6,30.6-8.7,40.5-1.6,5.2-3.5,11.4-4.2,13.7-1.4,4.8-1.9,4.9-8,2.9a73.43,73.43,0,0,0-39.4-1.6c-8.1,2.1-20.3,7.4-25.5,11.1-3.6,2.5-4.3,2.1-2.9-1.6,1.7-4.4,5.7-22.3,7.1-31.3,1.1-7.2,1.7-8.7,4.6-11.7,3.8-4,8-5,16.2-4.2,5.6.6,16.2,5.1,20.9,8.8,1.4,1,2.8,1.6,3.2,1.4s2.7-5.1,4.9-10.8,7.9-19.6,12.6-31.2,8.5-21.7,8.5-22.6c0-1.4-12.1-13.4-68-67.9-4.2-4.1-9-8.7-10.6-10.2l-3-2.8-31.4,3.5c-17.3,2-32.9,3.8-34.6,4.1-2.6.5-3.4.1-4.9-2.2-5.7-8.7-30-28.6-38.5-31.5C96.6,36.4,96.3,35,99.5,34.3ZM90.6,193.8c2.4.1,13-16.9,16.1-25.7,6.4-19,3.2-40.3-8.8-58.5a37.54,37.54,0,0,1-3.7-6.1c0-1.1,14.3-9.9,21-13,3.6-1.6,9.4-4,13-5.3s7.1-2.2,7.9-2.1c1.9.3,11.6,17.2,15.9,27.7,7.6,18.8,10.8,36.3,9.9,55.2-1,21.8-7.7,40.5-19.9,55.5-4.4,5.5-15,15.2-20.4,18.8-10.3,6.8-29.5,15.5-34.4,15.5-1,0-3.3-3-6-7.8-6.1-10.8-11.6-20.6-15.8-28.2-1.9-3.6-4.6-8.1-5.8-10.1s-4.6-7.8-7.4-12.9c-5.9-10.6-5.9-10.4-1.5-27.3,4.8-18.2,11.5-31.8,23-46.3,5.9-7.4,10.8-12.4,12.2-12.4,1.7,0,8.8,12.2,11.3,19.5,2.6,7.5,3.7,21.2,2.1,28.4-1.5,6.9-6.3,17-11.2,23.5-2.1,2.8-3.9,5.5-3.9,5.9C84.2,189.1,89.4,193.7,90.6,193.8Zm10.6,68c19.5-7,38.6-20.8,50-36.2,17.9-24.1,24.5-53.9,19-86.1a148.55,148.55,0,0,0-18.3-51c-2.2-3.7-3.7-7-3.4-7.3s8.3-1.4,17.8-2.5,22.1-2.6,27.9-3.3,10.7-1.4,11-1.4c.8-.2,23,21.6,23,22.6,0,.4-1.6,2.4-3.6,4.3-4.7,4.4-7.5,8.9-10.5,16.9-2.4,6.5-2.4,6.5-2.5,48,0,35.1-.3,43-1.8,51.5-7.7,43.6-27.2,74.1-56,87.6-7.8,3.6-14.9,5.5-26.2,6.9-10.7,1.3-9,2.9-20.7-18.3-4.6-8.4-10.1-18-12-21.4C90.8,264.9,90.3,265.7,101.2,261.8ZM232.6,131c1.6,7.8,10.3,13.8,17.9,12.4,4.5-.8,10.3-5.7,12.1-10l1.3-3.1,8.2,8.1,8.3,8.1-1.5,3.4c-.9,1.9-2.7,6.3-4,9.9-3.6,9.5-13.7,34.3-14.2,34.9-.3.2-2.2-.4-4.3-1.4-9.3-4.5-23-5.9-29.9-3-2,.8-3.8,1.4-3.9,1.2s-.7-13.8-1-30.3c-.6-26.3-.4-30.7,1-36.4,2.1-7.8,5.4-13.8,9.7-17.4,1.7-1.5,3.8-2.6,4.5-2.4,1.2.3,23.4,21.5,23.4,22.4,0,.2-6.4.4-14.1.4H232ZM20.2,60.3l.5-6.9,14-3.4c7.7-1.8,20.1-4.9,27.5-6.8s14.9-3.2,16.7-3c5.8.8,19.9,7.2,27.8,12.7s22.5,18.9,22.5,20.8c0,.5-2.4,1.7-5.2,2.5a133.08,133.08,0,0,0-15.1,6.5c-38.7,19.6-64.4,55.6-70.7,98.9L37,189.5l9.8,17.4c5.3,9.6,11.4,20.3,13.4,23.9s7.9,14.1,13.2,23.5,10.9,19.4,12.7,22.3a46.18,46.18,0,0,1,3.1,5.8,36.66,36.66,0,0,0,2.4,4.2c1.3,2,6,10.2,10.5,18.2s8.5,15.2,9,16c.8,1.1,3,1.4,10.2,1.1A97.49,97.49,0,0,0,170.2,307c6.9-4.5,20.2-17.7,26.4-26.2,13-17.9,28.4-29.2,46.3-34.1,6.5-1.8,9.5-2.1,17.8-1.6,9.3.5,19.8,2.8,21.8,4.7,1.2,1.1-15.9,34.8-19.3,38a25.94,25.94,0,0,0-2.4,3.5c-9.3,14.9-31.3,39-47.6,52.1A251,251,0,0,1,169,371.9l-6.8,3.3-5.7-2.8c-29-14.1-60.4-39.5-81.4-65.6a251.16,251.16,0,0,1-43.2-82c-5.6-18.4-7.8-29.5-10.8-54C19.9,160.9,19.1,73.3,20.2,60.3Z"/></g></g></svg>