<svg xmlns="http://www.w3.org/2000/svg" viewBox="0 0 309.8 387.61"><defs><style>.cls-1{fill:#fff;}</style></defs><g id="Layer_2" data-name="Layer 2"><g id="Layer_1-2" data-name="Layer 1"><path class="cls-1" d="M8,239.41c2.6,13.9,13.1,38.2,22.3,51.7,12.8,19,27.9,33,49.8,46.5a226.32,226.32,0,0,0,20.9,11.8c5.2,2.7,11.8,6.3,14.5,8s6.8,4.1,9,5.3c6.3,3.4,17.4,12.2,24,18.8,3.3,3.4,6.3,6.1,6.8,6.1s3.6-2.7,7-6.1c11.3-11.2,19.6-16.8,51.7-34.9,9.1-5.2,16.7-9.7,17-10a6.62,6.62,0,0,1,2.6-1.4,12.16,12.16,0,0,0,4-2.4,79.58,79.58,0,0,1,6.9-5.2c8-5.4,26.4-24.7,33.1-34.5a177.69,177.69,0,0,0,19.3-39.1c5.2-15.4,8.9-42.3,11.1-78.9,1.6-25.7,2.5-136.4,1.3-137.6q-1-1-5.4.9c-7,3.2-11.9,4.2-20.2,4.2-9.7,0-36.4-8.2-54.7-19.7a149.6,149.6,0,0,0-46-20c-7.9-2-12.4-2.5-26.5-2.8-22.3-.5-28.9.5-47,7.2-8.1,3-24.3,11.4-28.3,14.7a36.62,36.62,0,0,1-5.7,4c-1.6.9-3.7,2-4.5,2.6-5.3,3.2-17.2,7.7-28,10.6-7.2,1.9-25.6,2.4-35.6,1.1l-6.1-.9-.6,3.9c-1,5.9-.8,89.9.3,117.9C2.25,195.21,4.75,222.81,8,239.41Zm164.7,96.1c-4.5,15-8.2,20.7-16.5,25.5-.8.5-4.1-1.4-9-5.1-11.2-8.5-18.5-13-41.4-25.4-16.4-8.9-33.6-20.4-41-27.7l-6.7-6.5,3.7-4.6c5.2-6.3,6.5-8.6,9.1-15.6,3.9-10.3,2.3-18.5-7.9-40-8.2-17.2-10.1-24.1-10.7-37.6-.3-6.4-.3-13.7.1-16.3a26.16,26.16,0,0,1,1-4.6c.2,0,1.3,2.6,2.5,5.9,4.5,12.3,18.2,28.8,30.8,36.9,2.6,1.7,5.4,3.7,6.1,4.3,2.2,1.9,21.6,10.6,30.5,13.8,24.8,8.7,40.8,21.9,47.5,39.1,4.1,10.6,4.6,14.2,4.7,31.5C175.45,324.91,175.25,326.81,172.65,335.51Zm-94.1-225.1c6.7-9.1,17.1-16.2,27.4-18.8,1.9-.5,8.7-.8,15-.6,10.4.2,12.2.6,19.4,3.6,6.9,2.9,16.5,8.1,19.9,10.8,1.4,1.1,25.6,13.4,30.7,15.6,6.2,2.6,18.4,6.3,23.4,7,6.7,1,4.8,2.4-6,4.2-9.3,1.6-31.3,2.2-35,1-1.6-.5-2.3-1.8-2.8-4.9a17.3,17.3,0,0,0-25.1-12.6c-2.2,1.2-4.4,2.8-4.8,3.5-1.2,2-2.8,1.7-9.1-1.6-6.9-3.7-14.1-5.6-24.3-6.5-7.6-.7-18.5.5-22.8,2.5-1.1.5-3.7,1.6-5.8,2.6s-4,1.4-4.3,1.1S76,113.91,78.55,110.41Zm-2.7-25a9.57,9.57,0,0,1,1.6-12.6c5.4-4.6,14.5-1.8,15.9,4.9,1,5.1-.2,7.6-5.1,10.5-4,2.3-4.8,2.4-7.4,1.4A14.25,14.25,0,0,1,75.85,85.41Zm17.3,36.3c10.3-2.1,24.2-.2,32.7,4.4,25.9,14,39.9,17.9,64.1,17.9,13.6,0,25.9-1.8,33.5-5a18.59,18.59,0,0,1,4.5-1.4c1.4,0-3.4,9.4-6.2,12.1-6.3,6-18.5,9.2-41.8,10.9-42.6,3.1-56.5,8.7-64.8,26-3.6,7.6-3.8,21.2-.4,31.4,1.3,3.7,2.2,7,2,7.2-.6.5-19.7-9.4-24.7-12.8-10.9-7.4-23.2-22.7-27.7-34.3-1.5-3.9-1.9-7.5-1.9-16.5.1-10.9.2-11.9,3.3-18.5a46.32,46.32,0,0,1,7.4-11.2C77.45,127.51,86.15,123,93.15,121.71Zm179.6,141.5c-15.5,31.6-31.2,46.7-72.4,69.5-9.3,5.1-17.2,9.8-17.6,10.3-1.6,2.4-1.4-.5.9-9.9,2.1-9,2.3-11.6,2-26.5-.4-14.2-.8-17.7-3.1-25.5a110.12,110.12,0,0,0-5.9-14.9c-7.3-13.7-24.4-27.4-43.4-34.7-3-1.1-6.9-9.2-9.4-19.2-3.5-13.7-1.1-23.1,7.3-30,5.1-4.1,16.8-8.3,26.4-9.6a135.24,135.24,0,0,1,49.5,3.4c20.8,5.3,35.5,13.4,48.5,26.7,12.6,12.9,18.2,23,22.3,40.1C279.15,248.41,278.35,251.61,272.75,263.21ZM27.25,60.31c18.6-1.5,34.6-5.9,49.7-14,4.1-2.2,8.2-4.6,9.1-5.3a5,5,0,0,1,2.3-1.4c.4,0,3.4-1.8,6.7-4.1,5.3-3.6,11.7-6.8,22.4-11.4,4.4-1.9,16.1-4.6,23.5-5.5,18.6-2.2,38.8,1.2,57.9,9.6,7.2,3.2,23,12.4,26,15,1.3,1.2,6.4,4.2,11.5,6.7,17.1,8.5,30.3,12,46,12.1l8.9.1-.6,42.5c-.7,52.6-3,95.1-6.3,117.2l-.6,3.8-3-6.3c-10.9-22.1-31.3-39.5-57.5-49.2l-10.2-3.8,6-2.9a36.91,36.91,0,0,0,16.4-15.8c2.9-5.7,6.5-20.2,6.5-26v-4.2l-3.2.7c-6.6,1.4-15.2,1.7-19.4.6-2.4-.6-6.5-1.6-9.1-2.3-12.3-2.9-35.9-13.9-51.3-23.8-14.2-9.2-31.2-13.5-47-11.9a70.18,70.18,0,0,1-7.7.5,22.36,22.36,0,0,1-1.1-4.8c-2.9-15.4-21.6-21.7-32.7-11-4.6,4.5-6.5,8.7-6.5,14.7,0,5.6,2.7,11.2,7.6,15.4l3.6,3.2-2.5,2.7c-2.8,3.1-8.3,11.5-11.7,18.2-2,3.8-5.9,15.4-13.7,40.5-5.3,17-6.8,37.2-3.9,51.2a135.1,135.1,0,0,0,10.3,28.8c8.3,16.7,10.2,24,8.2,31.3-1.7,6.5-8.1,16.3-10.5,16.2-1.2-.1-6.9-8-9.1-12.4-.9-2-2-3.6-2.5-3.6a.92.92,0,0,1-.8-1,84.21,84.21,0,0,0-4-9.6c-11.6-24.6-14.8-54.2-15.7-145l-.5-55.1Z"/></g></g></svg>