<svg xmlns="http://www.w3.org/2000/svg" viewBox="0 0 319.65 417"><defs><style>.cls-1{fill:#fff;}</style></defs><g id="Layer_2" data-name="Layer 2"><g id="Layer_1-2" data-name="Layer 1"><path class="cls-1" d="M5.35,194c1.2,30.9,2.1,38.1,7.1,53.2,6.2,19.1,16.7,38.1,33.4,60.3,15.5,20.6,22.8,28.9,46.5,52.6,21.9,21.9,61.5,56.9,64.4,56.9.6,0,3.2-1.7,5.8-3.8s7.4-6,10.9-8.7c6.5-5.2,27.8-23.6,36.3-31.5,14.4-13.1,37.8-37.3,47.1-48.5,2.7-3.3,5.6-6.6,6.3-7.3s2.5-3,4-5,3.5-4.6,4.5-5.7c5.8-6.4,22.7-34.1,28.5-46.7a148.7,148.7,0,0,0,9.7-32.1c.8-5.1,2.6-31.3,4-58.2s3-56.7,3.6-66,1.2-23.6,1.6-31.6l.6-14.6-13.4-.6a238.33,238.33,0,0,1-48.4-7.2c-12.4-3-19-5-35.5-11-6.4-2.3-27.8-12.9-32.3-15.9a28,28,0,0,0-4.3-2.6c-.8,0-14.7-9.8-17.9-12.6-1.6-1.4-4.4-3.7-6.1-5a17.78,17.78,0,0,0-3.7-2.4c-.3,0-1.5,1.3-2.7,3-5,7-26.7,22.5-42,29.9C83.25,47.7,42.55,57,8.65,57c-4.5,0-8.4.3-8.6.7S.25,72,1,88.5C2.75,129.7,4.15,163.8,5.35,194Zm267.7,76.9c-4.8,8.1-22.2,31.8-28.4,38.8-1.5,1.7-5.3,6.1-8.3,9.7-12.8,15-53.5,54-71.4,68.4-6.7,5.4-8,6.1-9.5,5-2.9-2.3-13.4-11.2-17.4-14.8-7.5-6.7-9.3-8.3-16.9-15.6a107.12,107.12,0,0,1-7.8-7.7c0-.2,4.2-.7,9.3-1,10.5-.6,23.5-4.3,31-8.8a48.56,48.56,0,0,1,5.1-2.9c.8,0,11.6-6.8,19.1-12.1,4.4-3.1,11.2-7.8,15-10.4,13.3-9.2,31.5-22.9,31.5-23.7,0-.4-1.3-2.2-2.8-3.9l-2.9-3.2-12.4,9.2c-6.8,5.1-13.1,9.7-13.9,10.4s-9,6.1-18,12.1-17.6,11.7-19,12.7c-18.2,12-43,14.4-56.9,5.4-10.4-6.7-40.9-44.1-54.1-66.4L40,264.7l2.8-5.2a55.12,55.12,0,0,1,8.4-10.9c5.2-5.2,10.7-9.4,42.6-32.6,5.7-4.1,15-10.9,20.6-15s15.5-11.3,22-16c43.9-31.7,44.5-32.2,44.5-43.4-.1-7.9-1.9-12.5-7.7-18.9l-3.3-3.8-5.3,4c-2.9,2.1-7,5.3-9,7-7.7,6.4-21.5,17.1-22,17.1-1.4,0-38.9-15.4-40-16.5s-1.2-3.9-.7-13.7l.7-12.4,34.7-17.7c19-9.7,35.1-17.6,35.8-17.7,2.7-.1,31.3,21.5,47.7,36,9,8,15.6,23.3,15.6,36.2,0,17.8-6.4,29.6-22,40.4-4.6,3.2-13.1,9.3-45.5,32.8-15.1,10.9-54.5,40.2-59.5,44.3-.8.6-3.9,3-6.7,5.3-6.6,5.1-6.7,7.1-.9,14.2s8.9,9.6,15.5,12.6c10.6,4.9,20.4,4,34.5-3,7.4-3.6,32.5-20.5,69.6-46.7,22.3-15.7,26.6-17.7,39.1-17.5,7.7.1,9.2.5,14.7,3.4a53.21,53.21,0,0,1,9.3,6.2c4,3.9,8.9,11.7,8.9,14.2C284.35,250.2,279.45,260.4,273.05,270.9ZM20.05,76c.4-.4,6.5-1.2,13.4-1.8,43.9-4,89-20.5,118.4-43.5,3.9-3,7.5-5.6,8-5.6s2.1.9,3.5,2.2,6.1,4.5,10.5,7.3C207,55.7,248.15,70,288.15,74.2l11.4,1.3-.6,14c-.9,18.5-2.4,48-3.6,68.5-.5,9.1-1.4,26.2-2,38-1.1,22-2.7,38-3.9,38-.3,0-1.5-1.4-2.6-3.1-3.1-4.7-14.3-12.6-21.5-15.1-5-1.8-8.5-2.3-15.5-2.2-13.3.2-19,2.7-41.5,18.4-11.1,7.9-23.8,16.7-34.4,24.1-2.8,1.9-7.6,5.3-10.6,7.4-21.7,15.4-32,20.5-41.4,20.5a22.62,22.62,0,0,1-10.2-2.1c-4.4-2.1-11.4-8.5-11.3-10.4,0-.5,2.6-2.9,5.7-5.2s15.5-11.5,27.4-20.5,22.6-17,23.8-17.8c3.3-2.3,16.4-11.9,17.5-12.8.6-.4,3.3-2.3,6-4.2,11.2-7.6,36.7-26,39.2-28.2,7.2-6.2,13.7-17.7,16.3-28.7,1.7-7.3.8-23.9-1.8-31.1-4.3-12.4-12.1-22.6-25.2-33.1-3-2.4-5.7-4.6-6-5-1.9-2.1-31.9-23.9-37.6-27.2-.6-.3-5.1,1.5-10,4S133,73.4,115.85,82.1c-25.4,12.9-31.1,16.2-31.6,18.2-.4,1.3-.8,10.2-1,19.8l-.4,17.3,6.8,2.7,6.8,2.6-4.1,2.7c-2.2,1.5-5.2,3.7-6.6,4.9-2.2,1.9-4.1,2.3-12.7,2.7l-10.2.5v9l7.4.5,7.3.5.2,8.5c.1,8.1.2,8.5,2.5,8.8a15,15,0,0,0,4.7-.2c2.2-.6,2.4-1.1,2.4-7.6,0-9.6,1.9-13.8,7.9-17.8,5.9-3.8,14-7.1,16.1-6.4a40.86,40.86,0,0,1,4.5,1.7c16.1,6.8,18.9,7.7,21,6.5,1.1-.7,8.3-6.4,16.1-12.6s14.5-11.4,15.1-11.4c1.5,0,3.3,4.7,3.3,8.8,0,5.8-2.8,8.4-27.5,25.7-2.4,1.7-5.6,4-7.2,5.2-10.7,8.1-28.2,20.9-62.9,45.8-19.4,13.9-31.9,24.8-37,32l-2.1,3-1.6-3.1c-1.9-3.6-6.3-17.6-7.1-22.4-.6-3.4-1.8-30.4-5.1-112.9C20,94,19.65,76.4,20.05,76Z"/></g></g></svg>